<svg width="636" height="84" viewBox="0 0 636 84" fill="none" xmlns="http://www.w3.org/2000/svg">

<style>
.cell {
  shape-rendering:crispEdges;
  animation:pulse 1.8s infinite ease-in-out;
}
@keyframes pulse {
  0%,100% { opacity:1; }
  90% { opacity:.7; }
}
</style>
<g>

<rect class="cell" x="0" y="0" width="10" height="10" fill="rgba(255,110,150,0.15)" style="animation-delay:0.0s"/>
<rect class="cell" x="0" y="12" width="10" height="10" fill="rgba(255,110,150,0.22)" style="animation-delay:0.012s"/>
<rect class="cell" x="0" y="24" width="10" height="10" fill="#0d1117" style="animation-delay:0.024s"/>
<rect class="cell" x="0" y="36" width="10" height="10" fill="rgba(255,110,150,0.15)" style="animation-delay:0.036000000000000004s"/>
<rect class="cell" x="0" y="48" width="10" height="10" fill="#0d1117" style="animation-delay:0.048s"/>
<rect class="cell" x="0" y="60" width="10" height="10" fill="#0d1117" style="animation-delay:0.06s"/>
<rect class="cell" x="0" y="72" width="10" height="10" fill="#0d1117" style="animation-delay:0.07200000000000001s"/>
<rect class="cell" x="12" y="0" width="10" height="10" fill="rgba(255,110,150,0.22)" style="animation-delay:0.084s"/>
<rect class="cell" x="12" y="12" width="10" height="10" fill="rgba(255,110,150,0.22)" style="animation-delay:0.096s"/>
<rect class="cell" x="12" y="24" width="10" height="10" fill="rgba(255,110,150,0.15)" style="animation-delay:0.108s"/>
<rect class="cell" x="12" y="36" width="10" height="10" fill="rgba(255,110,150,0.15)" style="animation-delay:0.12s"/>
<rect class="cell" x="12" y="48" width="10" height="10" fill="rgba(255,110,150,0.22)" style="animation-delay:0.132s"/>
<rect class="cell" x="12" y="60" width="10" height="10" fill="rgba(255,110,150,0.15)" style="animation-delay:0.14400000000000002s"/>
<rect class="cell" x="12" y="72" width="10" height="10" fill="rgba(255,110,150,0.22)" style="animation-delay:0.156s"/>
<rect class="cell" x="24" y="0" width="10" height="10" fill="rgba(255,110,150,0.35)" style="animation-delay:0.168s"/>
<rect class="cell" x="24" y="12" width="10" height="10" fill="rgba(255,110,150,0.15)" style="animation-delay:0.18s"/>
<rect class="cell" x="24" y="24" width="10" height="10" fill="#0d1117" style="animation-delay:0.192s"/>
<rect class="cell" x="24" y="36" width="10" height="10" fill="rgba(255,110,150,0.22)" style="animation-delay:0.20400000000000001s"/>
<rect class="cell" x="24" y="48" width="10" height="10" fill="rgba(255,110,150,0.15)" style="animation-delay:0.216s"/>
<rect class="cell" x="24" y="60" width="10" height="10" fill="#0d1117" style="animation-delay:0.228s"/>
<rect class="cell" x="24" y="72" width="10" height="10" fill="#0d1117" style="animation-delay:0.24s"/>
<rect class="cell" x="36" y="0" width="10" height="10" fill="rgba(255,110,150,0.22)" style="animation-delay:0.252s"/>
<rect class="cell" x="36" y="12" width="10" height="10" fill="rgba(255,110,150,0.15)" style="animation-delay:0.264s"/>
<rect class="cell" x="36" y="24" width="10" height="10" fill="rgba(255,110,150,0.22)" style="animation-delay:0.276s"/>
<rect class="cell" x="36" y="36" width="10" height="10" fill="#0d1117" style="animation-delay:0.28800000000000003s"/>
<rect class="cell" x="36" y="48" width="10" height="10" fill="rgba(255,110,150,0.15)" style="animation-delay:0.3s"/>
<rect class="cell" x="36" y="60" width="10" height="10" fill="rgba(255,110,150,0.55)" style="animation-delay:0.312s"/>
<rect class="cell" x="36" y="72" width="10" height="10" fill="#0d1117" style="animation-delay:0.324s"/>
<rect class="cell" x="48" y="0" width="10" height="10" fill="#0d1117" style="animation-delay:0.336s"/>
<rect class="cell" x="48" y="12" width="10" height="10" fill="#0d1117" style="animation-delay:0.34800000000000003s"/>
<rect class="cell" x="48" y="24" width="10" height="10" fill="#0d1117" style="animation-delay:0.36s"/>
<rect class="cell" x="48" y="36" width="10" height="10" fill="#0d1117" style="animation-delay:0.372s"/>
<rect class="cell" x="48" y="48" width="10" height="10" fill="#0d1117" style="animation-delay:0.384s"/>
<rect class="cell" x="48" y="60" width="10" height="10" fill="#0d1117" style="animation-delay:0.396s"/>
<rect class="cell" x="48" y="72" width="10" height="10" fill="#0d1117" style="animation-delay:0.40800000000000003s"/>
<rect class="cell" x="60" y="0" width="10" height="10" fill="#0d1117" style="animation-delay:0.42s"/>
<rect class="cell" x="60" y="12" width="10" height="10" fill="#0d1117" style="animation-delay:0.432s"/>
<rect class="cell" x="60" y="24" width="10" height="10" fill="#0d1117" style="animation-delay:0.444s"/>
<rect class="cell" x="60" y="36" width="10" height="10" fill="#0d1117" style="animation-delay:0.456s"/>
<rect class="cell" x="60" y="48" width="10" height="10" fill="#0d1117" style="animation-delay:0.468s"/>
<rect class="cell" x="60" y="60" width="10" height="10" fill="#0d1117" style="animation-delay:0.48s"/>
<rect class="cell" x="60" y="72" width="10" height="10" fill="#ff6e96" style="animation-delay:0.492s"/>
<rect class="cell" x="72" y="0" width="10" height="10" fill="#ff6e96" style="animation-delay:0.504s"/>
<rect class="cell" x="72" y="12" width="10" height="10" fill="rgba(255,110,150,0.55)" style="animation-delay:0.516s"/>
<rect class="cell" x="72" y="24" width="10" height="10" fill="rgba(255,110,150,0.35)" style="animation-delay:0.528s"/>
<rect class="cell" x="72" y="36" width="10" height="10" fill="rgba(255,110,150,0.22)" style="animation-delay:0.54s"/>
<rect class="cell" x="72" y="48" width="10" height="10" fill="rgba(255,110,150,0.35)" style="animation-delay:0.552s"/>
<rect class="cell" x="72" y="60" width="10" height="10" fill="#0d1117" style="animation-delay:0.5640000000000001s"/>
<rect class="cell" x="72" y="72" width="10" height="10" fill="rgba(255,110,150,0.35)" style="animation-delay:0.5760000000000001s"/>
<rect class="cell" x="84" y="0" width="10" height="10" fill="rgba(255,110,150,0.55)" style="animation-delay:0.588s"/>
<rect class="cell" x="84" y="12" width="10" height="10" fill="rgba(255,110,150,0.75)" style="animation-delay:0.6s"/>
<rect class="cell" x="84" y="24" width="10" height="10" fill="rgba(255,110,150,0.55)" style="animation-delay:0.612s"/>
<rect class="cell" x="84" y="36" width="10" height="10" fill="rgba(255,110,150,0.55)" style="animation-delay:0.624s"/>
<rect class="cell" x="84" y="48" width="10" height="10" fill="rgba(255,110,150,0.75)" style="animation-delay:0.636s"/>
<rect class="cell" x="84" y="60" width="10" height="10" fill="#0d1117" style="animation-delay:0.648s"/>
<rect class="cell" x="84" y="72" width="10" height="10" fill="#ff6e96" style="animation-delay:0.66s"/>
<rect class="cell" x="96" y="0" width="10" height="10" fill="#ff6e96" style="animation-delay:0.672s"/>
<rect class="cell" x="96" y="12" width="10" height="10" fill="rgba(255,110,150,0.75)" style="animation-delay:0.684s"/>
<rect class="cell" x="96" y="24" width="10" height="10" fill="#ff6e96" style="animation-delay:0.6960000000000001s"/>
<rect class="cell" x="96" y="36" width="10" height="10" fill="rgba(255,110,150,0.75)" style="animation-delay:0.708s"/>
<rect class="cell" x="96" y="48" width="10" height="10" fill="#ff6e96" style="animation-delay:0.72s"/>
<rect class="cell" x="96" y="60" width="10" height="10" fill="rgba(255,110,150,0.75)" style="animation-delay:0.732s"/>
<rect class="cell" x="96" y="72" width="10" height="10" fill="rgba(255,110,150,0.35)" style="animation-delay:0.744s"/>
<rect class="cell" x="108" y="0" width="10" height="10" fill="rgba(255,110,150,0.35)" style="animation-delay:0.756s"/>
<rect class="cell" x="108" y="12" width="10" height="10" fill="rgba(255,110,150,0.75)" style="animation-delay:0.768s"/>
<rect class="cell" x="108" y="24" width="10" height="10" fill="rgba(255,110,150,0.55)" style="animation-delay:0.78s"/>
<rect class="cell" x="108" y="36" width="10" height="10" fill="rgba(255,110,150,0.75)" style="animation-delay:0.792s"/>
<rect class="cell" x="108" y="48" width="10" height="10" fill="rgba(255,110,150,0.35)" style="animation-delay:0.804s"/>
<rect class="cell" x="108" y="60" width="10" height="10" fill="rgba(255,110,150,0.15)" style="animation-delay:0.8160000000000001s"/>
<rect class="cell" x="108" y="72" width="10" height="10" fill="#0d1117" style="animation-delay:0.8280000000000001s"/>
<rect class="cell" x="120" y="0" width="10" height="10" fill="#0d1117" style="animation-delay:0.84s"/>
<rect class="cell" x="120" y="12" width="10" height="10" fill="#0d1117" style="animation-delay:0.852s"/>
<rect class="cell" x="120" y="24" width="10" height="10" fill="rgba(255,110,150,0.22)" style="animation-delay:0.864s"/>
<rect class="cell" x="120" y="36" width="10" height="10" fill="rgba(255,110,150,0.55)" style="animation-delay:0.876s"/>
<rect class="cell" x="120" y="48" width="10" height="10" fill="rgba(255,110,150,0.55)" style="animation-delay:0.888s"/>
<rect class="cell" x="120" y="60" width="10" height="10" fill="rgba(255,110,150,0.35)" style="animation-delay:0.9s"/>
<rect class="cell" x="120" y="72" width="10" height="10" fill="rgba(255,110,150,0.22)" style="animation-delay:0.912s"/>
<rect class="cell" x="132" y="0" width="10" height="10" fill="rgba(255,110,150,0.22)" style="animation-delay:0.924s"/>
<rect class="cell" x="132" y="12" width="10" height="10" fill="rgba(255,110,150,0.15)" style="animation-delay:0.936s"/>
<rect x="132" y="12" width="10" height="10" fill="none" stroke="white" stroke-width="1"/>
<rect class="cell" x="132" y="24" width="10" height="10" fill="rgba(255,110,150,0.55)" style="animation-delay:0.9480000000000001s"/>
<rect class="cell" x="132" y="36" width="10" height="10" fill="rgba(255,110,150,0.55)" style="animation-delay:0.96s"/>
<rect class="cell" x="132" y="48" width="10" height="10" fill="#ff6e96" style="animation-delay:0.972s"/>
<rect class="cell" x="132" y="60" width="10" height="10" fill="rgba(255,110,150,0.35)" style="animation-delay:0.984s"/>
<rect class="cell" x="132" y="72" width="10" height="10" fill="rgba(255,110,150,0.22)" style="animation-delay:0.996s"/>
<rect class="cell" x="144" y="0" width="10" height="10" fill="rgba(255,110,150,0.55)" style="animation-delay:1.008s"/>
<rect class="cell" x="144" y="12" width="10" height="10" fill="rgba(255,110,150,0.55)" style="animation-delay:1.02s"/>
<rect x="144" y="12" width="10" height="10" fill="none" stroke="white" stroke-width="1"/>
<rect class="cell" x="144" y="24" width="10" height="10" fill="#0d1117" style="animation-delay:1.032s"/>
<rect x="144" y="24" width="10" height="10" fill="none" stroke="white" stroke-width="1"/>
<rect class="cell" x="144" y="36" width="10" height="10" fill="rgba(255,110,150,0.75)" style="animation-delay:1.044s"/>
<rect x="144" y="36" width="10" height="10" fill="none" stroke="white" stroke-width="1"/>
<rect class="cell" x="144" y="48" width="10" height="10" fill="rgba(255,110,150,0.75)" style="animation-delay:1.056s"/>
<rect x="144" y="48" width="10" height="10" fill="none" stroke="white" stroke-width="1"/>
<rect class="cell" x="144" y="60" width="10" height="10" fill="rgba(255,110,150,0.75)" style="animation-delay:1.068s"/>
<rect x="144" y="60" width="10" height="10" fill="none" stroke="white" stroke-width="1"/>
<rect class="cell" x="144" y="72" width="10" height="10" fill="#ff6e96" style="animation-delay:1.08s"/>
<rect class="cell" x="156" y="0" width="10" height="10" fill="#ff6e96" style="animation-delay:1.092s"/>
<rect class="cell" x="156" y="12" width="10" height="10" fill="rgba(255,110,150,0.55)" style="animation-delay:1.104s"/>
<rect x="156" y="12" width="10" height="10" fill="none" stroke="white" stroke-width="1"/>
<rect class="cell" x="156" y="24" width="10" height="10" fill="rgba(255,110,150,0.75)" style="animation-delay:1.116s"/>
<rect class="cell" x="156" y="36" width="10" height="10" fill="rgba(255,110,150,0.22)" style="animation-delay:1.1280000000000001s"/>
<rect class="cell" x="156" y="48" width="10" height="10" fill="#0d1117" style="animation-delay:1.1400000000000001s"/>
<rect class="cell" x="156" y="60" width="10" height="10" fill="#0d1117" style="animation-delay:1.1520000000000001s"/>
<rect class="cell" x="156" y="72" width="10" height="10" fill="rgba(255,110,150,0.75)" style="animation-delay:1.164s"/>
<rect class="cell" x="168" y="0" width="10" height="10" fill="rgba(255,110,150,0.55)" style="animation-delay:1.176s"/>
<rect class="cell" x="168" y="12" width="10" height="10" fill="rgba(255,110,150,0.15)" style="animation-delay:1.188s"/>
<rect class="cell" x="168" y="24" width="10" height="10" fill="#0d1117" style="animation-delay:1.2s"/>
<rect class="cell" x="168" y="36" width="10" height="10" fill="#0d1117" style="animation-delay:1.212s"/>
<rect class="cell" x="168" y="48" width="10" height="10" fill="rgba(255,110,150,0.35)" style="animation-delay:1.224s"/>
<rect class="cell" x="168" y="60" width="10" height="10" fill="#ff6e96" style="animation-delay:1.236s"/>
<rect class="cell" x="168" y="72" width="10" height="10" fill="rgba(255,110,150,0.75)" style="animation-delay:1.248s"/>
<rect class="cell" x="180" y="0" width="10" height="10" fill="rgba(255,110,150,0.55)" style="animation-delay:1.26s"/>
<rect class="cell" x="180" y="12" width="10" height="10" fill="rgba(255,110,150,0.15)" style="animation-delay:1.272s"/>
<rect x="180" y="12" width="10" height="10" fill="none" stroke="white" stroke-width="1"/>
<rect class="cell" x="180" y="24" width="10" height="10" fill="rgba(255,110,150,0.15)" style="animation-delay:1.284s"/>
<rect x="180" y="24" width="10" height="10" fill="none" stroke="white" stroke-width="1"/>
<rect class="cell" x="180" y="36" width="10" height="10" fill="rgba(255,110,150,0.75)" style="animation-delay:1.296s"/>
<rect x="180" y="36" width="10" height="10" fill="none" stroke="white" stroke-width="1"/>
<rect class="cell" x="180" y="48" width="10" height="10" fill="rgba(255,110,150,0.22)" style="animation-delay:1.308s"/>
<rect x="180" y="48" width="10" height="10" fill="none" stroke="white" stroke-width="1"/>
<rect class="cell" x="180" y="60" width="10" height="10" fill="rgba(255,110,150,0.55)" style="animation-delay:1.32s"/>
<rect x="180" y="60" width="10" height="10" fill="none" stroke="white" stroke-width="1"/>
<rect class="cell" x="180" y="72" width="10" height="10" fill="rgba(255,110,150,0.35)" style="animation-delay:1.332s"/>
<rect class="cell" x="192" y="0" width="10" height="10" fill="#0d1117" style="animation-delay:1.344s"/>
<rect class="cell" x="192" y="12" width="10" height="10" fill="#0d1117" style="animation-delay:1.356s"/>
<rect class="cell" x="192" y="24" width="10" height="10" fill="#0d1117" style="animation-delay:1.368s"/>
<rect class="cell" x="192" y="36" width="10" height="10" fill="#0d1117" style="animation-delay:1.3800000000000001s"/>
<rect x="192" y="36" width="10" height="10" fill="none" stroke="white" stroke-width="1"/>
<rect class="cell" x="192" y="48" width="10" height="10" fill="#0d1117" style="animation-delay:1.3920000000000001s"/>
<rect class="cell" x="192" y="60" width="10" height="10" fill="#0d1117" style="animation-delay:1.4040000000000001s"/>
<rect class="cell" x="192" y="72" width="10" height="10" fill="rgba(255,110,150,0.55)" style="animation-delay:1.416s"/>
<rect class="cell" x="204" y="0" width="10" height="10" fill="rgba(255,110,150,0.35)" style="animation-delay:1.428s"/>
<rect class="cell" x="204" y="12" width="10" height="10" fill="rgba(255,110,150,0.75)" style="animation-delay:1.44s"/>
<rect x="204" y="12" width="10" height="10" fill="none" stroke="white" stroke-width="1"/>
<rect class="cell" x="204" y="24" width="10" height="10" fill="#ff6e96" style="animation-delay:1.452s"/>
<rect x="204" y="24" width="10" height="10" fill="none" stroke="white" stroke-width="1"/>
<rect class="cell" x="204" y="36" width="10" height="10" fill="#ff6e96" style="animation-delay:1.464s"/>
<rect x="204" y="36" width="10" height="10" fill="none" stroke="white" stroke-width="1"/>
<rect class="cell" x="204" y="48" width="10" height="10" fill="rgba(255,110,150,0.75)" style="animation-delay:1.476s"/>
<rect x="204" y="48" width="10" height="10" fill="none" stroke="white" stroke-width="1"/>
<rect class="cell" x="204" y="60" width="10" height="10" fill="#ff6e96" style="animation-delay:1.488s"/>
<rect x="204" y="60" width="10" height="10" fill="none" stroke="white" stroke-width="1"/>
<rect class="cell" x="204" y="72" width="10" height="10" fill="rgba(255,110,150,0.35)" style="animation-delay:1.5s"/>
<rect class="cell" x="216" y="0" width="10" height="10" fill="rgba(255,110,150,0.55)" style="animation-delay:1.512s"/>
<rect class="cell" x="216" y="12" width="10" height="10" fill="#ff6e96" style="animation-delay:1.524s"/>
<rect class="cell" x="216" y="24" width="10" height="10" fill="#ff6e96" style="animation-delay:1.536s"/>
<rect class="cell" x="216" y="36" width="10" height="10" fill="#ff6e96" style="animation-delay:1.548s"/>
<rect class="cell" x="216" y="48" width="10" height="10" fill="rgba(255,110,150,0.75)" style="animation-delay:1.56s"/>
<rect class="cell" x="216" y="60" width="10" height="10" fill="rgba(255,110,150,0.35)" style="animation-delay:1.572s"/>
<rect class="cell" x="216" y="72" width="10" height="10" fill="#ff6e96" style="animation-delay:1.584s"/>
<rect class="cell" x="228" y="0" width="10" height="10" fill="#ff6e96" style="animation-delay:1.596s"/>
<rect class="cell" x="228" y="12" width="10" height="10" fill="#ff6e96" style="animation-delay:1.608s"/>
<rect class="cell" x="228" y="24" width="10" height="10" fill="#ff6e96" style="animation-delay:1.62s"/>
<rect class="cell" x="228" y="36" width="10" height="10" fill="rgba(255,110,150,0.35)" style="animation-delay:1.6320000000000001s"/>
<rect x="228" y="36" width="10" height="10" fill="none" stroke="white" stroke-width="1"/>
<rect class="cell" x="228" y="48" width="10" height="10" fill="#ff6e96" style="animation-delay:1.6440000000000001s"/>
<rect class="cell" x="228" y="60" width="10" height="10" fill="#ff6e96" style="animation-delay:1.6560000000000001s"/>
<rect class="cell" x="228" y="72" width="10" height="10" fill="#ff6e96" style="animation-delay:1.668s"/>
<rect class="cell" x="240" y="0" width="10" height="10" fill="#ff6e96" style="animation-delay:1.68s"/>
<rect class="cell" x="240" y="12" width="10" height="10" fill="#ff6e96" style="animation-delay:1.692s"/>
<rect class="cell" x="240" y="24" width="10" height="10" fill="rgba(255,110,150,0.35)" style="animation-delay:1.704s"/>
<rect class="cell" x="240" y="36" width="10" height="10" fill="#0d1117" style="animation-delay:1.716s"/>
<rect x="240" y="36" width="10" height="10" fill="none" stroke="white" stroke-width="1"/>
<rect class="cell" x="240" y="48" width="10" height="10" fill="#0d1117" style="animation-delay:1.728s"/>
<rect class="cell" x="240" y="60" width="10" height="10" fill="rgba(255,110,150,0.55)" style="animation-delay:1.74s"/>
<rect class="cell" x="240" y="72" width="10" height="10" fill="rgba(255,110,150,0.75)" style="animation-delay:1.752s"/>
<rect class="cell" x="252" y="0" width="10" height="10" fill="rgba(255,110,150,0.75)" style="animation-delay:1.764s"/>
<rect class="cell" x="252" y="12" width="10" height="10" fill="rgba(255,110,150,0.35)" style="animation-delay:1.776s"/>
<rect class="cell" x="252" y="24" width="10" height="10" fill="rgba(255,110,150,0.75)" style="animation-delay:1.788s"/>
<rect class="cell" x="252" y="36" width="10" height="10" fill="rgba(255,110,150,0.22)" style="animation-delay:1.8s"/>
<rect x="252" y="36" width="10" height="10" fill="none" stroke="white" stroke-width="1"/>
<rect class="cell" x="252" y="48" width="10" height="10" fill="#0d1117" style="animation-delay:1.812s"/>
<rect class="cell" x="252" y="60" width="10" height="10" fill="#0d1117" style="animation-delay:1.824s"/>
<rect class="cell" x="252" y="72" width="10" height="10" fill="rgba(255,110,150,0.35)" style="animation-delay:1.836s"/>
<rect class="cell" x="264" y="0" width="10" height="10" fill="#0d1117" style="animation-delay:1.848s"/>
<rect class="cell" x="264" y="12" width="10" height="10" fill="#ff6e96" style="animation-delay:1.86s"/>
<rect class="cell" x="264" y="24" width="10" height="10" fill="rgba(255,110,150,0.15)" style="animation-delay:1.872s"/>
<rect class="cell" x="264" y="36" width="10" height="10" fill="#ff6e96" style="animation-delay:1.8840000000000001s"/>
<rect class="cell" x="264" y="48" width="10" height="10" fill="#ff6e96" style="animation-delay:1.8960000000000001s"/>
<rect class="cell" x="264" y="60" width="10" height="10" fill="#ff6e96" style="animation-delay:1.9080000000000001s"/>
<rect class="cell" x="264" y="72" width="10" height="10" fill="#ff6e96" style="animation-delay:1.92s"/>
<rect class="cell" x="276" y="0" width="10" height="10" fill="#ff6e96" style="animation-delay:1.932s"/>
<rect class="cell" x="276" y="12" width="10" height="10" fill="#ff6e96" style="animation-delay:1.944s"/>
<rect x="276" y="12" width="10" height="10" fill="none" stroke="white" stroke-width="1"/>
<rect class="cell" x="276" y="24" width="10" height="10" fill="rgba(255,110,150,0.55)" style="animation-delay:1.956s"/>
<rect x="276" y="24" width="10" height="10" fill="none" stroke="white" stroke-width="1"/>
<rect class="cell" x="276" y="36" width="10" height="10" fill="rgba(255,110,150,0.75)" style="animation-delay:1.968s"/>
<rect x="276" y="36" width="10" height="10" fill="none" stroke="white" stroke-width="1"/>
<rect class="cell" x="276" y="48" width="10" height="10" fill="#ff6e96" style="animation-delay:1.98s"/>
<rect x="276" y="48" width="10" height="10" fill="none" stroke="white" stroke-width="1"/>
<rect class="cell" x="276" y="60" width="10" height="10" fill="#ff6e96" style="animation-delay:1.992s"/>
<rect x="276" y="60" width="10" height="10" fill="none" stroke="white" stroke-width="1"/>
<rect class="cell" x="276" y="72" width="10" height="10" fill="#ff6e96" style="animation-delay:2.004s"/>
<rect class="cell" x="288" y="0" width="10" height="10" fill="#ff6e96" style="animation-delay:2.016s"/>
<rect class="cell" x="288" y="12" width="10" height="10" fill="#ff6e96" style="animation-delay:2.028s"/>
<rect x="288" y="12" width="10" height="10" fill="none" stroke="white" stroke-width="1"/>
<rect class="cell" x="288" y="24" width="10" height="10" fill="rgba(255,110,150,0.35)" style="animation-delay:2.04s"/>
<rect class="cell" x="288" y="36" width="10" height="10" fill="rgba(255,110,150,0.22)" style="animation-delay:2.052s"/>
<rect class="cell" x="288" y="48" width="10" height="10" fill="rgba(255,110,150,0.22)" style="animation-delay:2.064s"/>
<rect class="cell" x="288" y="60" width="10" height="10" fill="rgba(255,110,150,0.55)" style="animation-delay:2.076s"/>
<rect x="288" y="60" width="10" height="10" fill="none" stroke="white" stroke-width="1"/>
<rect class="cell" x="288" y="72" width="10" height="10" fill="#ff6e96" style="animation-delay:2.088s"/>
<rect class="cell" x="300" y="0" width="10" height="10" fill="#ff6e96" style="animation-delay:2.1s"/>
<rect class="cell" x="300" y="12" width="10" height="10" fill="rgba(255,110,150,0.55)" style="animation-delay:2.112s"/>
<rect x="300" y="12" width="10" height="10" fill="none" stroke="white" stroke-width="1"/>
<rect class="cell" x="300" y="24" width="10" height="10" fill="#0d1117" style="animation-delay:2.124s"/>
<rect x="300" y="24" width="10" height="10" fill="none" stroke="white" stroke-width="1"/>
<rect class="cell" x="300" y="36" width="10" height="10" fill="#0d1117" style="animation-delay:2.136s"/>
<rect x="300" y="36" width="10" height="10" fill="none" stroke="white" stroke-width="1"/>
<rect class="cell" x="300" y="48" width="10" height="10" fill="#0d1117" style="animation-delay:2.148s"/>
<rect class="cell" x="300" y="60" width="10" height="10" fill="#0d1117" style="animation-delay:2.16s"/>
<rect x="300" y="60" width="10" height="10" fill="none" stroke="white" stroke-width="1"/>
<rect class="cell" x="300" y="72" width="10" height="10" fill="#0d1117" style="animation-delay:2.172s"/>
<rect class="cell" x="312" y="0" width="10" height="10" fill="#0d1117" style="animation-delay:2.184s"/>
<rect class="cell" x="312" y="12" width="10" height="10" fill="#0d1117" style="animation-delay:2.196s"/>
<rect class="cell" x="312" y="24" width="10" height="10" fill="#0d1117" style="animation-delay:2.208s"/>
<rect class="cell" x="312" y="36" width="10" height="10" fill="#0d1117" style="animation-delay:2.22s"/>
<rect class="cell" x="312" y="48" width="10" height="10" fill="#0d1117" style="animation-delay:2.232s"/>
<rect class="cell" x="312" y="60" width="10" height="10" fill="#0d1117" style="animation-delay:2.244s"/>
<rect class="cell" x="312" y="72" width="10" height="10" fill="#0d1117" style="animation-delay:2.2560000000000002s"/>
<rect class="cell" x="324" y="0" width="10" height="10" fill="#0d1117" style="animation-delay:2.2680000000000002s"/>
<rect class="cell" x="324" y="12" width="10" height="10" fill="#0d1117" style="animation-delay:2.2800000000000002s"/>
<rect x="324" y="12" width="10" height="10" fill="none" stroke="white" stroke-width="1"/>
<rect class="cell" x="324" y="24" width="10" height="10" fill="#0d1117" style="animation-delay:2.2920000000000003s"/>
<rect x="324" y="24" width="10" height="10" fill="none" stroke="white" stroke-width="1"/>
<rect class="cell" x="324" y="36" width="10" height="10" fill="#0d1117" style="animation-delay:2.3040000000000003s"/>
<rect x="324" y="36" width="10" height="10" fill="none" stroke="white" stroke-width="1"/>
<rect class="cell" x="324" y="48" width="10" height="10" fill="#0d1117" style="animation-delay:2.316s"/>
<rect x="324" y="48" width="10" height="10" fill="none" stroke="white" stroke-width="1"/>
<rect class="cell" x="324" y="60" width="10" height="10" fill="#0d1117" style="animation-delay:2.328s"/>
<rect x="324" y="60" width="10" height="10" fill="none" stroke="white" stroke-width="1"/>
<rect class="cell" x="324" y="72" width="10" height="10" fill="#0d1117" style="animation-delay:2.34s"/>
<rect class="cell" x="336" y="0" width="10" height="10" fill="#0d1117" style="animation-delay:2.352s"/>
<rect class="cell" x="336" y="12" width="10" height="10" fill="#0d1117" style="animation-delay:2.364s"/>
<rect x="336" y="12" width="10" height="10" fill="none" stroke="white" stroke-width="1"/>
<rect class="cell" x="336" y="24" width="10" height="10" fill="#0d1117" style="animation-delay:2.376s"/>
<rect class="cell" x="336" y="36" width="10" height="10" fill="#0d1117" style="animation-delay:2.388s"/>
<rect class="cell" x="336" y="48" width="10" height="10" fill="#0d1117" style="animation-delay:2.4s"/>
<rect class="cell" x="336" y="60" width="10" height="10" fill="#0d1117" style="animation-delay:2.412s"/>
<rect class="cell" x="336" y="72" width="10" height="10" fill="#0d1117" style="animation-delay:2.424s"/>
<rect class="cell" x="348" y="0" width="10" height="10" fill="#0d1117" style="animation-delay:2.436s"/>
<rect class="cell" x="348" y="12" width="10" height="10" fill="#0d1117" style="animation-delay:2.448s"/>
<rect x="348" y="12" width="10" height="10" fill="none" stroke="white" stroke-width="1"/>
<rect class="cell" x="348" y="24" width="10" height="10" fill="#0d1117" style="animation-delay:2.46s"/>
<rect x="348" y="24" width="10" height="10" fill="none" stroke="white" stroke-width="1"/>
<rect class="cell" x="348" y="36" width="10" height="10" fill="rgba(255,110,150,0.15)" style="animation-delay:2.472s"/>
<rect x="348" y="36" width="10" height="10" fill="none" stroke="white" stroke-width="1"/>
<rect class="cell" x="348" y="48" width="10" height="10" fill="rgba(255,110,150,0.22)" style="animation-delay:2.484s"/>
<rect class="cell" x="348" y="60" width="10" height="10" fill="#0d1117" style="animation-delay:2.496s"/>
<rect class="cell" x="348" y="72" width="10" height="10" fill="#0d1117" style="animation-delay:2.508s"/>
<rect class="cell" x="360" y="0" width="10" height="10" fill="rgba(255,110,150,0.22)" style="animation-delay:2.52s"/>
<rect class="cell" x="360" y="12" width="10" height="10" fill="#0d1117" style="animation-delay:2.532s"/>
<rect class="cell" x="360" y="24" width="10" height="10" fill="#0d1117" style="animation-delay:2.544s"/>
<rect class="cell" x="360" y="36" width="10" height="10" fill="#0d1117" style="animation-delay:2.556s"/>
<rect class="cell" x="360" y="48" width="10" height="10" fill="#0d1117" style="animation-delay:2.568s"/>
<rect class="cell" x="360" y="60" width="10" height="10" fill="#0d1117" style="animation-delay:2.58s"/>
<rect class="cell" x="360" y="72" width="10" height="10" fill="#0d1117" style="animation-delay:2.592s"/>
<rect class="cell" x="372" y="0" width="10" height="10" fill="#0d1117" style="animation-delay:2.604s"/>
<rect class="cell" x="372" y="12" width="10" height="10" fill="#0d1117" style="animation-delay:2.616s"/>
<rect class="cell" x="372" y="24" width="10" height="10" fill="#0d1117" style="animation-delay:2.628s"/>
<rect x="372" y="24" width="10" height="10" fill="none" stroke="white" stroke-width="1"/>
<rect class="cell" x="372" y="36" width="10" height="10" fill="rgba(255,110,150,0.15)" style="animation-delay:2.64s"/>
<rect x="372" y="36" width="10" height="10" fill="none" stroke="white" stroke-width="1"/>
<rect class="cell" x="372" y="48" width="10" height="10" fill="rgba(255,110,150,0.22)" style="animation-delay:2.652s"/>
<rect x="372" y="48" width="10" height="10" fill="none" stroke="white" stroke-width="1"/>
<rect class="cell" x="372" y="60" width="10" height="10" fill="#0d1117" style="animation-delay:2.664s"/>
<rect class="cell" x="372" y="72" width="10" height="10" fill="rgba(255,110,150,0.15)" style="animation-delay:2.676s"/>
<rect class="cell" x="384" y="0" width="10" height="10" fill="#0d1117" style="animation-delay:2.688s"/>
<rect class="cell" x="384" y="12" width="10" height="10" fill="rgba(255,110,150,0.22)" style="animation-delay:2.7s"/>
<rect x="384" y="12" width="10" height="10" fill="none" stroke="white" stroke-width="1"/>
<rect class="cell" x="384" y="24" width="10" height="10" fill="#0d1117" style="animation-delay:2.712s"/>
<rect class="cell" x="384" y="36" width="10" height="10" fill="#0d1117" style="animation-delay:2.724s"/>
<rect class="cell" x="384" y="48" width="10" height="10" fill="#0d1117" style="animation-delay:2.736s"/>
<rect class="cell" x="384" y="60" width="10" height="10" fill="#0d1117" style="animation-delay:2.748s"/>
<rect x="384" y="60" width="10" height="10" fill="none" stroke="white" stroke-width="1"/>
<rect class="cell" x="384" y="72" width="10" height="10" fill="#0d1117" style="animation-delay:2.7600000000000002s"/>
<rect class="cell" x="396" y="0" width="10" height="10" fill="#0d1117" style="animation-delay:2.7720000000000002s"/>
<rect class="cell" x="396" y="12" width="10" height="10" fill="#0d1117" style="animation-delay:2.7840000000000003s"/>
<rect class="cell" x="396" y="24" width="10" height="10" fill="#0d1117" style="animation-delay:2.7960000000000003s"/>
<rect x="396" y="24" width="10" height="10" fill="none" stroke="white" stroke-width="1"/>
<rect class="cell" x="396" y="36" width="10" height="10" fill="#0d1117" style="animation-delay:2.8080000000000003s"/>
<rect x="396" y="36" width="10" height="10" fill="none" stroke="white" stroke-width="1"/>
<rect class="cell" x="396" y="48" width="10" height="10" fill="rgba(255,110,150,0.22)" style="animation-delay:2.82s"/>
<rect x="396" y="48" width="10" height="10" fill="none" stroke="white" stroke-width="1"/>
<rect class="cell" x="396" y="60" width="10" height="10" fill="rgba(255,110,150,0.15)" style="animation-delay:2.832s"/>
<rect class="cell" x="396" y="72" width="10" height="10" fill="rgba(255,110,150,0.35)" style="animation-delay:2.844s"/>
<rect class="cell" x="408" y="0" width="10" height="10" fill="rgba(255,110,150,0.35)" style="animation-delay:2.856s"/>
<rect class="cell" x="408" y="12" width="10" height="10" fill="rgba(255,110,150,0.15)" style="animation-delay:2.868s"/>
<rect class="cell" x="408" y="24" width="10" height="10" fill="#0d1117" style="animation-delay:2.88s"/>
<rect class="cell" x="408" y="36" width="10" height="10" fill="#0d1117" style="animation-delay:2.892s"/>
<rect class="cell" x="408" y="48" width="10" height="10" fill="#0d1117" style="animation-delay:2.904s"/>
<rect class="cell" x="408" y="60" width="10" height="10" fill="rgba(255,110,150,0.35)" style="animation-delay:2.916s"/>
<rect class="cell" x="408" y="72" width="10" height="10" fill="#0d1117" style="animation-delay:2.928s"/>
<rect class="cell" x="420" y="0" width="10" height="10" fill="rgba(255,110,150,0.22)" style="animation-delay:2.94s"/>
<rect class="cell" x="420" y="12" width="10" height="10" fill="rgba(255,110,150,0.22)" style="animation-delay:2.952s"/>
<rect class="cell" x="420" y="24" width="10" height="10" fill="#0d1117" style="animation-delay:2.964s"/>
<rect x="420" y="24" width="10" height="10" fill="none" stroke="white" stroke-width="1"/>
<rect class="cell" x="420" y="36" width="10" height="10" fill="#0d1117" style="animation-delay:2.976s"/>
<rect x="420" y="36" width="10" height="10" fill="none" stroke="white" stroke-width="1"/>
<rect class="cell" x="420" y="48" width="10" height="10" fill="rgba(255,110,150,0.15)" style="animation-delay:2.988s"/>
<rect x="420" y="48" width="10" height="10" fill="none" stroke="white" stroke-width="1"/>
<rect class="cell" x="420" y="60" width="10" height="10" fill="rgba(255,110,150,0.22)" style="animation-delay:3.0s"/>
<rect class="cell" x="420" y="72" width="10" height="10" fill="rgba(255,110,150,0.35)" style="animation-delay:3.012s"/>
<rect class="cell" x="432" y="0" width="10" height="10" fill="rgba(255,110,150,0.22)" style="animation-delay:3.024s"/>
<rect class="cell" x="432" y="12" width="10" height="10" fill="rgba(255,110,150,0.15)" style="animation-delay:3.036s"/>
<rect x="432" y="12" width="10" height="10" fill="none" stroke="white" stroke-width="1"/>
<rect class="cell" x="432" y="24" width="10" height="10" fill="rgba(255,110,150,0.15)" style="animation-delay:3.048s"/>
<rect class="cell" x="432" y="36" width="10" height="10" fill="rgba(255,110,150,0.35)" style="animation-delay:3.06s"/>
<rect class="cell" x="432" y="48" width="10" height="10" fill="rgba(255,110,150,0.55)" style="animation-delay:3.072s"/>
<rect class="cell" x="432" y="60" width="10" height="10" fill="rgba(255,110,150,0.55)" style="animation-delay:3.084s"/>
<rect x="432" y="60" width="10" height="10" fill="none" stroke="white" stroke-width="1"/>
<rect class="cell" x="432" y="72" width="10" height="10" fill="rgba(255,110,150,0.55)" style="animation-delay:3.096s"/>
<rect class="cell" x="444" y="0" width="10" height="10" fill="#0d1117" style="animation-delay:3.108s"/>
<rect class="cell" x="444" y="12" width="10" height="10" fill="rgba(255,110,150,0.55)" style="animation-delay:3.12s"/>
<rect class="cell" x="444" y="24" width="10" height="10" fill="rgba(255,110,150,0.55)" style="animation-delay:3.132s"/>
<rect x="444" y="24" width="10" height="10" fill="none" stroke="white" stroke-width="1"/>
<rect class="cell" x="444" y="36" width="10" height="10" fill="rgba(255,110,150,0.22)" style="animation-delay:3.144s"/>
<rect x="444" y="36" width="10" height="10" fill="none" stroke="white" stroke-width="1"/>
<rect class="cell" x="444" y="48" width="10" height="10" fill="rgba(255,110,150,0.22)" style="animation-delay:3.156s"/>
<rect x="444" y="48" width="10" height="10" fill="none" stroke="white" stroke-width="1"/>
<rect class="cell" x="444" y="60" width="10" height="10" fill="rgba(255,110,150,0.55)" style="animation-delay:3.168s"/>
<rect class="cell" x="444" y="72" width="10" height="10" fill="rgba(255,110,150,0.22)" style="animation-delay:3.18s"/>
<rect class="cell" x="456" y="0" width="10" height="10" fill="rgba(255,110,150,0.75)" style="animation-delay:3.192s"/>
<rect class="cell" x="456" y="12" width="10" height="10" fill="rgba(255,110,150,0.75)" style="animation-delay:3.204s"/>
<rect class="cell" x="456" y="24" width="10" height="10" fill="#ff6e96" style="animation-delay:3.216s"/>
<rect class="cell" x="456" y="36" width="10" height="10" fill="#ff6e96" style="animation-delay:3.228s"/>
<rect class="cell" x="456" y="48" width="10" height="10" fill="#ff6e96" style="animation-delay:3.24s"/>
<rect class="cell" x="456" y="60" width="10" height="10" fill="rgba(255,110,150,0.75)" style="animation-delay:3.2520000000000002s"/>
<rect class="cell" x="456" y="72" width="10" height="10" fill="rgba(255,110,150,0.15)" style="animation-delay:3.2640000000000002s"/>
<rect class="cell" x="468" y="0" width="10" height="10" fill="rgba(255,110,150,0.55)" style="animation-delay:3.2760000000000002s"/>
<rect class="cell" x="468" y="12" width="10" height="10" fill="rgba(255,110,150,0.35)" style="animation-delay:3.2880000000000003s"/>
<rect x="468" y="12" width="10" height="10" fill="none" stroke="white" stroke-width="1"/>
<rect class="cell" x="468" y="24" width="10" height="10" fill="rgba(255,110,150,0.22)" style="animation-delay:3.3000000000000003s"/>
<rect x="468" y="24" width="10" height="10" fill="none" stroke="white" stroke-width="1"/>
<rect class="cell" x="468" y="36" width="10" height="10" fill="rgba(255,110,150,0.15)" style="animation-delay:3.3120000000000003s"/>
<rect x="468" y="36" width="10" height="10" fill="none" stroke="white" stroke-width="1"/>
<rect class="cell" x="468" y="48" width="10" height="10" fill="rgba(255,110,150,0.22)" style="animation-delay:3.3240000000000003s"/>
<rect x="468" y="48" width="10" height="10" fill="none" stroke="white" stroke-width="1"/>
<rect class="cell" x="468" y="60" width="10" height="10" fill="rgba(255,110,150,0.35)" style="animation-delay:3.336s"/>
<rect x="468" y="60" width="10" height="10" fill="none" stroke="white" stroke-width="1"/>
<rect class="cell" x="468" y="72" width="10" height="10" fill="rgba(255,110,150,0.55)" style="animation-delay:3.348s"/>
<rect class="cell" x="480" y="0" width="10" height="10" fill="#ff6e96" style="animation-delay:3.36s"/>
<rect class="cell" x="480" y="12" width="10" height="10" fill="#ff6e96" style="animation-delay:3.372s"/>
<rect class="cell" x="480" y="24" width="10" height="10" fill="#ff6e96" style="animation-delay:3.384s"/>
<rect class="cell" x="480" y="36" width="10" height="10" fill="#ff6e96" style="animation-delay:3.396s"/>
<rect class="cell" x="480" y="48" width="10" height="10" fill="#ff6e96" style="animation-delay:3.408s"/>
<rect class="cell" x="480" y="60" width="10" height="10" fill="rgba(255,110,150,0.35)" style="animation-delay:3.42s"/>
<rect x="480" y="60" width="10" height="10" fill="none" stroke="white" stroke-width="1"/>
<rect class="cell" x="480" y="72" width="10" height="10" fill="rgba(255,110,150,0.22)" style="animation-delay:3.432s"/>
<rect class="cell" x="492" y="0" width="10" height="10" fill="rgba(255,110,150,0.75)" style="animation-delay:3.444s"/>
<rect class="cell" x="492" y="12" width="10" height="10" fill="rgba(255,110,150,0.35)" style="animation-delay:3.456s"/>
<rect class="cell" x="492" y="24" width="10" height="10" fill="#ff6e96" style="animation-delay:3.468s"/>
<rect class="cell" x="492" y="36" width="10" height="10" fill="rgba(255,110,150,0.35)" style="animation-delay:3.48s"/>
<rect class="cell" x="492" y="48" width="10" height="10" fill="rgba(255,110,150,0.15)" style="animation-delay:3.492s"/>
<rect class="cell" x="492" y="60" width="10" height="10" fill="#0d1117" style="animation-delay:3.504s"/>
<rect x="492" y="60" width="10" height="10" fill="none" stroke="white" stroke-width="1"/>
<rect class="cell" x="492" y="72" width="10" height="10" fill="rgba(255,110,150,0.15)" style="animation-delay:3.516s"/>
<rect class="cell" x="504" y="0" width="10" height="10" fill="#0d1117" style="animation-delay:3.528s"/>
<rect class="cell" x="504" y="12" width="10" height="10" fill="#0d1117" style="animation-delay:3.54s"/>
<rect class="cell" x="504" y="24" width="10" height="10" fill="rgba(255,110,150,0.22)" style="animation-delay:3.552s"/>
<rect class="cell" x="504" y="36" width="10" height="10" fill="#0d1117" style="animation-delay:3.564s"/>
<rect class="cell" x="504" y="48" width="10" height="10" fill="#0d1117" style="animation-delay:3.576s"/>
<rect class="cell" x="504" y="60" width="10" height="10" fill="rgba(255,110,150,0.22)" style="animation-delay:3.588s"/>
<rect class="cell" x="504" y="72" width="10" height="10" fill="#0d1117" style="animation-delay:3.6s"/>
<rect class="cell" x="516" y="0" width="10" height="10" fill="rgba(255,110,150,0.55)" style="animation-delay:3.612s"/>
<rect class="cell" x="516" y="12" width="10" height="10" fill="rgba(255,110,150,0.35)" style="animation-delay:3.624s"/>
<rect class="cell" x="516" y="24" width="10" height="10" fill="rgba(255,110,150,0.35)" style="animation-delay:3.636s"/>
<rect class="cell" x="516" y="36" width="10" height="10" fill="rgba(255,110,150,0.55)" style="animation-delay:3.648s"/>
<rect class="cell" x="516" y="48" width="10" height="10" fill="#ff6e96" style="animation-delay:3.66s"/>
<rect class="cell" x="516" y="60" width="10" height="10" fill="rgba(255,110,150,0.55)" style="animation-delay:3.672s"/>
<rect class="cell" x="516" y="72" width="10" height="10" fill="rgba(255,110,150,0.22)" style="animation-delay:3.684s"/>
<rect class="cell" x="528" y="0" width="10" height="10" fill="rgba(255,110,150,0.22)" style="animation-delay:3.696s"/>
<rect class="cell" x="528" y="12" width="10" height="10" fill="rgba(255,110,150,0.35)" style="animation-delay:3.708s"/>
<rect class="cell" x="528" y="24" width="10" height="10" fill="rgba(255,110,150,0.35)" style="animation-delay:3.72s"/>
<rect class="cell" x="528" y="36" width="10" height="10" fill="rgba(255,110,150,0.22)" style="animation-delay:3.732s"/>
<rect class="cell" x="528" y="48" width="10" height="10" fill="rgba(255,110,150,0.22)" style="animation-delay:3.744s"/>
<rect class="cell" x="528" y="60" width="10" height="10" fill="rgba(255,110,150,0.75)" style="animation-delay:3.7560000000000002s"/>
<rect class="cell" x="528" y="72" width="10" height="10" fill="rgba(255,110,150,0.22)" style="animation-delay:3.7680000000000002s"/>
<rect class="cell" x="540" y="0" width="10" height="10" fill="rgba(255,110,150,0.22)" style="animation-delay:3.7800000000000002s"/>
<rect class="cell" x="540" y="12" width="10" height="10" fill="rgba(255,110,150,0.35)" style="animation-delay:3.7920000000000003s"/>
<rect class="cell" x="540" y="24" width="10" height="10" fill="#0d1117" style="animation-delay:3.8040000000000003s"/>
<rect class="cell" x="540" y="36" width="10" height="10" fill="#0d1117" style="animation-delay:3.8160000000000003s"/>
<rect class="cell" x="540" y="48" width="10" height="10" fill="rgba(255,110,150,0.22)" style="animation-delay:3.8280000000000003s"/>
<rect class="cell" x="540" y="60" width="10" height="10" fill="#0d1117" style="animation-delay:3.84s"/>
<rect class="cell" x="540" y="72" width="10" height="10" fill="rgba(255,110,150,0.22)" style="animation-delay:3.852s"/>
<rect class="cell" x="552" y="0" width="10" height="10" fill="#0d1117" style="animation-delay:3.864s"/>
<rect class="cell" x="552" y="12" width="10" height="10" fill="rgba(255,110,150,0.15)" style="animation-delay:3.876s"/>
<rect class="cell" x="552" y="24" width="10" height="10" fill="#0d1117" style="animation-delay:3.888s"/>
<rect class="cell" x="552" y="36" width="10" height="10" fill="#0d1117" style="animation-delay:3.9s"/>
<rect class="cell" x="552" y="48" width="10" height="10" fill="#0d1117" style="animation-delay:3.912s"/>
<rect class="cell" x="552" y="60" width="10" height="10" fill="#0d1117" style="animation-delay:3.924s"/>
<rect class="cell" x="552" y="72" width="10" height="10" fill="#0d1117" style="animation-delay:3.936s"/>
<rect class="cell" x="564" y="0" width="10" height="10" fill="rgba(255,110,150,0.22)" style="animation-delay:3.948s"/>
<rect class="cell" x="564" y="12" width="10" height="10" fill="#ff6e96" style="animation-delay:3.96s"/>
<rect class="cell" x="564" y="24" width="10" height="10" fill="rgba(255,110,150,0.55)" style="animation-delay:3.972s"/>
<rect class="cell" x="564" y="36" width="10" height="10" fill="rgba(255,110,150,0.35)" style="animation-delay:3.984s"/>
<rect class="cell" x="564" y="48" width="10" height="10" fill="rgba(255,110,150,0.15)" style="animation-delay:3.996s"/>
<rect class="cell" x="564" y="60" width="10" height="10" fill="#0d1117" style="animation-delay:4.008s"/>
<rect class="cell" x="564" y="72" width="10" height="10" fill="rgba(255,110,150,0.35)" style="animation-delay:4.0200000000000005s"/>
<rect class="cell" x="576" y="0" width="10" height="10" fill="rgba(255,110,150,0.35)" style="animation-delay:4.032s"/>
<rect class="cell" x="576" y="12" width="10" height="10" fill="#ff6e96" style="animation-delay:4.0440000000000005s"/>
<rect class="cell" x="576" y="24" width="10" height="10" fill="#ff6e96" style="animation-delay:4.056s"/>
<rect class="cell" x="576" y="36" width="10" height="10" fill="#0d1117" style="animation-delay:4.0680000000000005s"/>
<rect class="cell" x="576" y="48" width="10" height="10" fill="#0d1117" style="animation-delay:4.08s"/>
<rect class="cell" x="576" y="60" width="10" height="10" fill="rgba(255,110,150,0.35)" style="animation-delay:4.0920000000000005s"/>
<rect class="cell" x="576" y="72" width="10" height="10" fill="rgba(255,110,150,0.75)" style="animation-delay:4.104s"/>
<rect class="cell" x="588" y="0" width="10" height="10" fill="rgba(255,110,150,0.15)" style="animation-delay:4.116s"/>
<rect class="cell" x="588" y="12" width="10" height="10" fill="#0d1117" style="animation-delay:4.128s"/>
<rect class="cell" x="588" y="24" width="10" height="10" fill="#0d1117" style="animation-delay:4.14s"/>
<rect class="cell" x="588" y="36" width="10" height="10" fill="#ff6e96" style="animation-delay:4.152s"/>
<rect class="cell" x="588" y="48" width="10" height="10" fill="#ff6e96" style="animation-delay:4.164s"/>
<rect class="cell" x="588" y="60" width="10" height="10" fill="#0d1117" style="animation-delay:4.176s"/>
<rect class="cell" x="588" y="72" width="10" height="10" fill="rgba(255,110,150,0.22)" style="animation-delay:4.188s"/>
<rect class="cell" x="600" y="0" width="10" height="10" fill="rgba(255,110,150,0.15)" style="animation-delay:4.2s"/>
<rect class="cell" x="600" y="12" width="10" height="10" fill="rgba(255,110,150,0.15)" style="animation-delay:4.212s"/>
<rect class="cell" x="600" y="24" width="10" height="10" fill="#0d1117" style="animation-delay:4.224s"/>
<rect class="cell" x="600" y="36" width="10" height="10" fill="rgba(255,110,150,0.22)" style="animation-delay:4.236s"/>
<rect class="cell" x="600" y="48" width="10" height="10" fill="rgba(255,110,150,0.22)" style="animation-delay:4.248s"/>
<rect class="cell" x="600" y="60" width="10" height="10" fill="#0d1117" style="animation-delay:4.26s"/>
<rect class="cell" x="600" y="72" width="10" height="10" fill="#0d1117" style="animation-delay:4.272s"/>
<rect class="cell" x="612" y="0" width="10" height="10" fill="#0d1117" style="animation-delay:4.284s"/>
<rect class="cell" x="612" y="12" width="10" height="10" fill="#0d1117" style="animation-delay:4.296s"/>
<rect class="cell" x="612" y="24" width="10" height="10" fill="#0d1117" style="animation-delay:4.308s"/>
<rect class="cell" x="612" y="36" width="10" height="10" fill="rgba(255,110,150,0.15)" style="animation-delay:4.32s"/>
<rect class="cell" x="612" y="48" width="10" height="10" fill="#0d1117" style="animation-delay:4.332s"/>
<rect class="cell" x="612" y="60" width="10" height="10" fill="#0d1117" style="animation-delay:4.344s"/>
<rect class="cell" x="612" y="72" width="10" height="10" fill="#0d1117" style="animation-delay:4.356s"/>
<rect class="cell" x="624" y="0" width="10" height="10" fill="#0d1117" style="animation-delay:4.368s"/>
<rect class="cell" x="624" y="12" width="10" height="10" fill="#0d1117" style="animation-delay:4.38s"/>
<rect class="cell" x="624" y="24" width="10" height="10" fill="#0d1117" style="animation-delay:4.392s"/>
<rect class="cell" x="624" y="36" width="10" height="10" fill="#0d1117" style="animation-delay:4.404s"/>
<rect class="cell" x="624" y="48" width="10" height="10" fill="#0d1117" style="animation-delay:4.416s"/>
</g></svg>